# AST/ASF file generated using VICON BodyLanguage
# -----------------------------------------------
:version 1.10
:name VICON
:units
  mass 1.0
  length 0.45
  angle deg
:documentation
   .ast/.asf automatically generated from VICON data using
   VICON BodyBuilder and BodyLanguage model FoxedUp or BRILLIANT.MOD
:root
   order TX TY TZ RX RY RZ
   axis XYZ
   position 0 0 0  
   orientation 0 -0 0 
:bonedata
  begin
     id 1 
     name lhipjoint
     direction 0.432694 -0.693742 0.575759 
     length 2.19277 
     axis 0 -0 0  XYZ
  end
  begin
     id 2 
     name lfemur
     direction 0.34202 -0.939693 0  
     length 6.69022  
     axis 0 -0 20  XYZ
    dof rx ry rz
    limits (-160.0 20.0)
           (-70.0 70.0)
           (-60.0 70.0)
  end
  begin
     id 3 
     name ltibia
     direction 0.34202 -0.939693 0   
     length 6.50337   
     axis 0 -0 20   XYZ
    dof rx
    limits (-10.0 170.0)
  end
  begin
     id 4 
     name lfoot
     direction 0.158999 -0.435969 0.885805   
     length 2.70564   
     axis -90 -1.13533e-015 20   XYZ
    dof rx rz
    limits (-45.0 90.0)
           (-70.0 20.0)
  end
  begin
     id 5 
     name ltoes
     direction -0.00592919 0.00964381 0.999936   
     length 1.29929   
     axis -90 -1.13533e-015 20   XYZ
    dof rx
    limits (-90.0 20.0)
  end
  begin
     id 6 
     name rhipjoint
     direction -0.414359 -0.700339 0.581234   
     length 2.17212  
     axis 0 -0 0  XYZ 
  end
  begin
     id 7 
     name rfemur
     direction -0.34202 -0.939693 0   
     length 7.17659   
     axis 0 -0 -20   XYZ
    dof rx ry rz
    limits (-160.0 20.0)
           (-70.0 70.0)
           (-70.0 60.0)
  end
  begin
     id 8 
     name rtibia
     direction -0.34202 -0.939693 0   
     length 6.36669   
     axis 0 -0 -20   XYZ
    dof rx
    limits (-10.0 170.0)
 end
 begin
     id 9 
     name rfoot
     direction -0.137064 -0.37658 0.916188   
     length 2.22351  
     axis -90 1.13533e-015 -20   XYZ
    dof rx rz
    limits (-45.0 90.0)
           (-20.0 70.0)
  end
  begin
     id 10 
     name rtoes
     direction -0.000784077 -0.00289101 0.999996   
     length 1.09522   
     axis -90 1.13533e-015 -20   XYZ
    dof rx
    limits (-90.0 20.0)
  end
  begin
     id 11 
     name lowerback
     direction -0.0176242 0.984912 -0.172157   
     length 1.65301   
     axis 0 -0 0   XYZ
    dof rx ry rz
    limits (-20.0 45.0)
           (-30.0 30.0)
           (-30.0 30.0)
  end
  begin
     id 12 
     name upperback
     direction -0.00218128 0.998776 -0.0494072   
     length 1.67776   
     axis 0 -0 0   XYZ
    dof rx ry rz
    limits (-20.0 45.0)
           (-30.0 30.0)
           (-30.0 30.0)
  end
  begin
     id 13 
     name thorax
     direction 0.00544186 0.999658 0.0255711   
     length 1.72293   
     axis 0 -0 0   XYZ
    dof rx ry rz
    limits (-20.0 45.0)
           (-30.0 30.0)
           (-30.0 30.0)
  end
  begin
     id 14 
     name lowerneck
     direction -0.105325 0.983841 0.144785   
     length 2.14226   
     axis 0 -0 0   XYZ
    dof rx ry rz
    limits (-20.0 45.0)
           (-30.0 30.0)
           (-30.0 30.0)
  end
  begin
     id 15 
     name upperneck
     direction 0.0547957 0.988053 -0.144041   
     length 2.17508   
     axis 0 -0 0   XYZ
    dof rx ry rz
    limits (-20.0 45.0)
           (-30.0 30.0)
           (-30.0 30.0)
  end
  begin
     id 16
     name head
     direction 0.0247488 0.997534 -0.0656813  
     length 2.20048  
     axis 0 -0 0   XYZ
    dof rx ry rz
    limits (-20.0 45.0)
           (-30.0 30.0)
           (-30.0 30.0)
  end
  begin
     id 17 
     name lclavicle
     direction 0.820559 0.567247 -0.0701026  
     length 4.09615  
     axis 0 -0 0   XYZ
    dof ry rz
    limits (-20.0 10.0)
           (0.0 20.0)
  end
  begin
     id 18 
     name lhumerus
     direction 0.999977 -0.0067566 -9.96392e-005   
     length 4.59333   
     axis -180 -30 -90   XYZ
    dof rx ry rz
    limits (-60.0 90.0)
           (-90.0 90.0)
           (-90.0 90.0)
  end
  begin
     id 19
     name lradius
     direction 1 -4.48982e-011 -2.53425e-027   
     length 2.81151   
     axis -180 -30 -90   XYZ
    dof rx
    limits (-10.0 170.0)
  end
  begin
     id 20
     name lwrist
     direction 1 -4.48939e-011 -7.39254e-028   
     length 1.40576   
     axis 2.56395e-016 90 90   XYZ
    dof ry
    limits (-180.0 0.0)
 end
  begin
     id 21 
     name lhand
     direction 1 -4.48939e-011 -1.47851e-027   
     length 0.895651   
     axis 9.43423e-016 90 90   XYZ
    dof rx rz
    limits (-90.0 90.0)
           (-45.0 45.0)
  end
  begin
     id 22 
     name lfingers
     direction 1 -4.48978e-011 -2.95702e-027   
     length 0.722097   
     axis 1.88685e-015 90 90   XYZ
    dof rx
    limits (0.0 90.0)
  end
  begin
     id 23
     name lthumb
     direction 0.707107 -6.34931e-011 0.707107   
     length 1.03679   
     axis -90 45 -9.86935e-015   XYZ
    dof rx rz
    limits (-45.0 45.0)
           (-45.0 45.0)
  end
  begin
     id 24 
     name rclavicle
     direction -0.831414 0.553102 -0.0531864   
     length 4.24872  
     axis 0 -0 0   XYZ 
    dof ry rz
    limits (-10.0 20.0)
           (-20.0 0.0)
  end
  begin
     id 25 
     name rhumerus
     direction -0.999916 -0.000939607 0.0129331  
     length 4.74834   
     axis -180 30 90   XYZ
    dof rx ry rz
    limits (-90.0 60.0)
           (-90.0 90.0)
           (-90.0 90.0)
  end
  begin
     id 26 
     name rradius
     direction -1 -4.48956e-011 -1.31752e-027   
     length 2.79907   
     axis -180 30 90   XYZ
    dof rx
    limits (-10.0 170.0)
  end
  begin
     id 27 
     name rwrist
     direction -1 -4.4897e-011 -7.39254e-028   
     length 1.39954   
     axis 2.56395e-016 -90 -90   XYZ
    dof ry
    limits (-180.0 0.0)
  end
  begin
     id 28
     name rhand
     direction -0.999997 -0.00250697 0.000800838   
     length 0.953304   
     axis 9.43423e-016 -90 -90   XYZ
    dof rx rz
    limits (-90.0 90.0)
           (-45.0 45.0)
  end
  begin
     id 29
     name rfingers
     direction -1 -4.48954e-011 -2.95702e-027   
     length 0.763342   
     axis 1.88685e-015 -90 -90   XYZ
    dof rx
    limits (0.0 90.0)
  end
  begin
     id 30
     name rthumb
     direction -0.709701 -0.00217037 0.7045   
     length 1.10115   
     axis -90 -45 9.86935e-015   XYZ
    dof rx rz
    limits (-45.0 45.0)
           (-45.0 45.0)
  end
:hierarchy
  begin
    root lhipjoint rhipjoint lowerback
    lhipjoint lfemur
    lfemur ltibia
    ltibia lfoot
    lfoot ltoes
    rhipjoint rfemur
    rfemur rtibia
    rtibia rfoot
    rfoot rtoes
    lowerback upperback
    upperback thorax
    thorax lowerneck lclavicle rclavicle
    lowerneck upperneck
    upperneck head
    lclavicle lhumerus
    lhumerus lradius
    lradius lwrist
    lwrist lhand lthumb
    lhand lfingers
    rclavicle rhumerus
    rhumerus rradius
    rradius rwrist
    rwrist rhand rthumb
    rhand rfingers
  end

#!OML:ASF G:\ViconDB\ViconDB\414\test\team2\shane.ASF
:FULLY-SPECIFIED
:DEGREES
80
root 3.6824 16.5356 -20.3546 -7.11476 -0.260572 -3.3756
lowerback 5.62907 -5.90104 -1.64078
upperback 2.85982 -7.96338 6.0357
thorax 0.9309 -4.11401 7.52496
lowerneck -16.5203 1.60207 -5.5474
upperneck 28.3235 3.2788 2.03029
head 11.9048 1.10748 2.18975
rclavicle 2.82274e-014 -5.725e-014
rhumerus -50.6464 -1.06692 -78.2188
rradius 32.6841
rwrist 30.9569
rhand -29.1808 -14.4369
rfingers 7.12502
rthumb -2.52629 -44.4016
lclavicle 2.82274e-014 -5.725e-014
lhumerus -21.2212 -21.9249 95.4977
lradius 40.1614
lwrist -6.80615
lhand -41.277 7.74579
lfingers 7.12502
lthumb -14.1986 37.2405
rfemur -30.0604 -15.354 23.1311
rtibia 37.5681
rfoot 1.84753 10.0473
rtoes -17.5493
lfemur 31.4621 1.83503 -14.8329
ltibia -6.99722e-014
lfoot -23.2181 -14.7576
ltoes -8.71438
81
root 3.66527 16.4672 -20.1843 -6.96406 -0.0357203 -3.58789
lowerback 5.36589 -5.96053 -1.51952
upperback 2.86059 -8.04518 6.27235
thorax 1.10893 -4.16226 7.6773
lowerneck -16.4597 1.57959 -5.58546
upperneck 28.1595 3.32933 1.77679
head 11.8331 1.09797 2.10396
rclavicle -1.31297e-013 2.38542e-014
rhumerus -50.8753 -1.74304 -77.6693
rradius 32.6387
rwrist 30.6076
rhand -29.0478 -14.1653
rfingers 7.12502
rthumb -2.39791 -44.1315
lclavicle -1.31297e-013 2.38542e-014
lhumerus -20.3934 -22.2229 95.3626
lradius 40.3267
lwrist -6.62424
lhand -41.4034 7.70177
lfingers 7.12502
lthumb -14.3204 37.1879
rfemur -30.1553 -15.896 23.7376
rtibia 38.3726
rfoot 2.37679 9.63145
rtoes -17.461
lfemur 31.9921 1.58668 -14.5014
ltibia -9.54166e-014
lfoot -24.0859 -14.9159
ltoes -8.84727
82
root 3.64677 16.3998 -20.014 -6.78539 0.279947 -3.7355
lowerback 5.18396 -6.00699 -1.4373
upperback 2.76774 -8.1039 6.38723
thorax 1.12769 -4.1907 7.73797
lowerneck -16.2324 1.54077 -5.49741
upperneck 27.9935 3.26512 1.65668
head 11.7298 1.06861 2.02739
rclavicle -8.18993e-014 4.6118e-014
rhumerus -51.292 -2.41616 -77.3313
rradius 32.5364
rwrist 30.5229
rhand -29.1246 -14.3924
rfingers 7.12502
rthumb -2.47201 -44.3578
lclavicle -8.18993e-014 4.6118e-014
lhumerus -19.818 -22.895 95.2046
lradius 40.3733
lwrist -6.7275
lhand -41.5284 7.7183
lfingers 7.12502
lthumb -14.4408 37.1959
rfemur -30.1395 -16.2486 24.1393
rtibia 39.3289
rfoot 2.85023 9.21337
rtoes -15.1045
lfemur 32.3831 1.28092 -14.2879
ltibia 6.36111e-015
lfoot -24.7626 -15.0046
ltoes -9.04334
83
root 3.62857 16.332 -19.8413 -6.59314 0.71766 -3.8824
lowerback 4.95568 -6.03698 -1.3642
upperback 2.69091 -8.14292 6.49501
thorax 1.18625 -4.21034 7.78898
lowerneck -16.1252 1.44087 -5.40966
upperneck 27.896 3.11162 1.5773
head 11.6804 1.00213 1.95746
rclavicle 2.98177e-016 -3.02153e-014
rhumerus -51.7187 -3.33681 -76.8502
rradius 32.4634
rwrist 30.5338
rhand -28.8644 -14.0273
rfingers 7.12502
rthumb -2.22075 -43.9955
lclavicle 2.98177e-016 -3.02153e-014
lhumerus -19.3094 -23.529 95.062
lradius 40.5254
lwrist -7.03334
lhand -41.5866 7.82036
lfingers 7.12502
lthumb -14.4969 37.2939
rfemur -30.0203 -16.4946 24.4587
rtibia 40.4237
rfoot 1.20586 9.60964
rtoes -11.1838
lfemur 32.8468 0.835211 -14.0457
ltibia -6.67916e-014
lfoot -25.3778 -15.1852
ltoes -9.19972
84
root 3.60952 16.2682 -19.661 -6.45683 1.17215 -4.19176
lowerback 4.64506 -6.12842 -1.25054
upperback 2.71944 -8.27478 6.7851
thorax 1.43809 -4.28758 7.99453
lowerneck -16.1924 1.37067 -5.6255
upperneck 27.7204 3.08234 1.56409
head 11.625 0.969876 1.98266
rclavicle -3.58806e-014 1.59028e-015
rhumerus -51.9152 -3.60693 -76.5004
rradius 32.3109
rwrist 30.6298
rhand -29.2769 -14.3443
rfingers 7.12502
rthumb -2.61915 -44.3079
lclavicle -3.58806e-014 1.59028e-015
lhumerus -18.4322 -23.7967 95.0168
lradius 40.3208
lwrist -7.24787
lhand -41.7836 7.4704
lfingers 7.12502
lthumb -14.6867 36.9302
rfemur -29.8345 -16.9567 24.9642
rtibia 41.5759
rfoot -2.68963 10.497
rtoes -12.3323
lfemur 33.3397 0.34915 -13.6398
ltibia -1.11319e-013
lfoot -25.8865 -15.3994
ltoes -9.381
85
root 3.59027 16.2107 -19.4786 -6.33238 1.58572 -4.41238
lowerback 4.34101 -6.1262 -1.17666
upperback 2.66701 -8.27804 7.00923
thorax 1.5781 -4.29436 8.15824
lowerneck -15.9365 1.25258 -5.69256
upperneck 27.4256 2.93898 1.47026
head 11.4679 0.896078 1.92926
rclavicle -1.14699e-013 6.99722e-014
rhumerus -52.3316 -4.60327 -75.5635
rradius 31.957
rwrist 32.0454
rhand -29.5577 -14.2165
rfingers 7.12502
rthumb -2.89033 -44.1767
lclavicle -1.14699e-013 6.99722e-014
lhumerus -17.9764 -24.1452 95.2717
lradius 40.2935
lwrist -7.43128
lhand -41.7182 7.84323
lfingers 7.12502
lthumb -14.6237 37.3076
rfemur -29.5731 -17.0383 25.2327
rtibia 42.7277
rfoot -5.22657 9.37088
rtoes -10.2453
lfemur 33.8602 -0.0665945 -13.3594
ltibia -4.77083e-014
lfoot -26.2902 -15.4326
ltoes -10.0843
